<svg width="32" height="32" viewBox="0 0 32 32" fill="none" xmlns="http://www.w3.org/2000/svg">
    <g id="Frame">
        <path id="Vector" fill-rule="evenodd" clip-rule="evenodd" d="M16.0345 2.66666C8.68917 2.66666 2.73584 8.61999 2.73584 15.9653C2.73584 21.84 6.54517 26.8253 11.8305 28.5853C12.4958 28.7053 12.7358 28.296 12.7358 27.944C12.7358 27.628 12.7252 26.7907 12.7212 25.6827C9.02117 26.4853 8.23984 23.8987 8.23984 23.8987C7.63717 22.3627 6.76384 21.9533 6.76384 21.9533C5.55717 21.128 6.85584 21.1467 6.85584 21.1467C8.19184 21.24 8.89184 22.5173 8.89184 22.5173C10.0785 24.5493 12.0065 23.9627 12.7612 23.6227C12.8825 22.7627 13.2292 22.176 13.6078 21.844C10.6558 21.5093 7.55184 20.368 7.55184 15.2707C7.55184 13.8213 8.07051 12.632 8.91717 11.704C8.78251 11.3667 8.32251 10.0133 9.04917 8.18399C9.04917 8.18399 10.1652 7.82532 12.7052 9.54532C13.79 9.25022 14.909 9.09958 16.0332 9.09732C17.1574 9.09915 18.2765 9.24979 19.3612 9.54532C21.9025 7.82399 23.0172 8.18399 23.0172 8.18399C23.7438 10.0133 23.2878 11.3667 23.1492 11.704C24.0025 12.632 24.5145 13.82 24.5145 15.2707C24.5145 20.3813 21.4078 21.504 18.4452 21.8333C18.9185 22.244 19.3452 23.0547 19.3452 24.2947C19.3452 26.0733 19.3292 27.508 19.3292 27.944C19.3292 28.3 19.5665 28.7133 20.2452 28.5827C25.5278 26.82 29.3332 21.8387 29.3332 15.9653C29.3332 8.61999 23.3798 2.66666 16.0345 2.66666Z" fill="#8ED3F4"/>
    </g>
</svg>
